<svg width="181" height="194" viewBox="0 0 181 194" fill="none" xmlns="http://www.w3.org/2000/svg">
<path fill-rule="evenodd" clip-rule="evenodd" d="M167.89 116.422L162.559 153.885L127.45 167.999L167.89 116.422ZM173.179 109.678L173.396 109.4L173.265 109.073L180.129 60.8396L103.743 0.946426L13.6809 37.1522L0.00504173 133.251L76.3912 193.144L121.04 175.195L121.731 175.293L122.161 174.744L166.453 156.939L173.179 109.678ZM112.555 173.987L47.0078 164.659L77.0884 188.245L112.555 173.987ZM35.7529 155.835L10.1746 92.2084L4.59642 131.405L35.7529 155.835ZM11.8585 80.3754L55.2214 25.0714L17.5751 40.2056L11.8585 80.3754ZM65.7563 20.8363L134.673 30.6438L103.046 5.84557L65.7563 20.8363ZM144.987 38.7306L175.538 62.6853L170.068 101.121L144.987 38.7306ZM149.631 73.5L146.191 97.6677L130.42 58.4375L149.631 73.5ZM154.06 72.791L149.388 105.62L149.566 106.062L149.272 106.437L144.615 139.162L168.497 108.703L154.06 72.791ZM153.318 70.9456L139.111 35.6041L101.4 30.2375L153.318 70.9456ZM98.5541 29.8325L61.1121 24.5041L37.7765 54.2656L98.5541 29.8325ZM36.0474 56.4709L12.4998 86.503L26.7345 121.912L36.0474 56.4709ZM27.4222 123.623L41.8862 159.602L80.2773 165.065L27.4222 123.623ZM81.2255 165.2L119.885 170.702L143.979 139.973L113.31 152.302L113.113 152.554L112.795 152.509L81.2255 165.2ZM140.637 136.697L118.599 145.557L143.984 113.182L140.637 136.697ZM61.9869 145.278L104.31 151.301L81.4096 160.507L61.9869 145.278ZM34.877 95.1126L51.8483 137.329L31.1759 121.12L34.877 95.1126ZM40.1695 57.9225L65.1544 47.8783L36.3756 84.5821L40.1695 57.9225ZM119.857 50.1547L75.274 43.8101L99.397 34.1125L119.857 50.1547ZM144.667 105.365L124.476 55.1409L70.8856 47.5143L37.4855 90.112L57.6761 140.336L111.267 147.963L144.667 105.365Z" fill="#5B27A8" fill-opacity="0.5"/>
</svg>
